<?xml version="1.0" standalone="no"?>
<!DOCTYPE svg PUBLIC "-//W3C//DTD SVG 20010904//EN"
 "http://www.w3.org/TR/2001/REC-SVG-20010904/DTD/svg10.dtd">
<svg version="1.0" xmlns="http://www.w3.org/2000/svg"
 width="1000.000000pt" height="1000.000000pt" viewBox="0 0 1000.000000 1000.000000"
 preserveAspectRatio="xMidYMid meet">
<metadata>
Created by potrace 1.11, written by Peter Selinger 2001-2013
</metadata>
<g transform="translate(0.000000,1000.000000) scale(0.100000,-0.100000)"
fill="#000000" stroke="none">
<path d="M0 5000 l0 -5000 2760 0 2760 0 0 1737 0 1737 153 -150 c83 -82 388
-381 677 -664 289 -283 614 -602 723 -709 l197 -195 0 -878 0 -878 1365 0
1365 0 0 5000 0 5000 -5000 0 -5000 0 0 -5000z m7120 3152 c0 -5 -12 -19 -27
-32 -30 -25 -924 -902 -1311 -1285 -128 -126 -237 -231 -242 -233 -5 -2 -7 12
-5 30 46 345 95 529 195 728 90 180 251 370 410 484 207 150 500 255 835 300
123 17 145 18 145 8z m1450 -1097 l0 -345 -352 1 -353 0 350 344 c193 190 351
345 353 345 1 0 2 -155 2 -345z m-645 -1645 c550 0 655 -2 655 -14 0 -7 -34
-332 -75 -722 -41 -390 -75 -712 -75 -716 0 -4 -261 -8 -580 -8 -421 0 -580
-3 -580 -11 0 -12 -240 220 -800 770 -235 232 -321 323 -312 329 7 5 135 130
285 278 150 148 396 391 547 539 l275 270 3 -357 2 -358 655 0z"/>
</g>
</svg>
